# xmcd CD database file
#
# Track frame offsets:
#	150
#	27089
#	43449
#	69096
#	91687
#	156360
#	193069
#	215447
#	241369
#	270770
#
# Disc length: 4267 seconds
#
# Revision: 0
# Processed by: cddbd v1.5.2PL0 Copyright (c) Steve Scherf et al.
# Submitted via: CDex 1.70beta2
#
DISCID=7f10a90a
DTITLE=Various Artist - The 100 Best Jazz Tunes of the 1950's album 5
DYEAR=1957
DGENRE=Jazz
TTITLE0=Benny Golson - Whisper Not
TTITLE1=Nina Simone - My Baby Just Cares For Me
TTITLE2=Quincy Jones - Stockholm Sweetnin'
TTITLE3=Ray Charles - Dawn Ray (instrumental)
TTITLE4=Duke Ellington - Diminuendo and Crescendo in Blue
TTITLE5=Ahmad Jamal Trio - Poinciana
TTITLE6=Louis Armstrong - Summertime (with Ella Fitzgerald)
TTITLE7=Miles Davis - Milestones
TTITLE8=Sonny Rollins - Way Out West
TTITLE9=Cannonball Adderley - Autumn Leaves
EXTD=YEAR: 1957
EXTT0=
EXTT1=
EXTT2=
EXTT3=
EXTT4=
EXTT5=
EXTT6=
EXTT7=
EXTT8=
EXTT9=
PLAYORDER=
